HIERARCHY
ROOT Hips
{
	OFFSET 0.00000 0.00000 0.00000
	CHANNELS 6 Xposition Yposition Zposition Zrotation Yrotation Xrotation 
	JOINT LHipJoint
	{
		OFFSET 0 0 0
		CHANNELS 3 Zrotation Yrotation Xrotation
		JOINT LeftUpLeg
		{
			OFFSET 1.57338 -1.94743 0.52196
			CHANNELS 3 Zrotation Yrotation Xrotation
			JOINT LeftLeg
			{
				OFFSET 2.60333 -7.15259 0.00000
				CHANNELS 3 Zrotation Yrotation Xrotation
				JOINT LeftFoot
				{
					OFFSET 2.77855 -7.63400 0.00000
					CHANNELS 3 Zrotation Yrotation Xrotation
					JOINT LeftToeBase
					{
						OFFSET 0.19847 -0.54529 2.28466
						CHANNELS 3 Zrotation Yrotation Xrotation
						End Site
						{
							OFFSET 0.00000 -0.00000 1.17993
						}
					}
				}
			}
		}
	}
	JOINT RHipJoint
	{
		OFFSET 0 0 0
		CHANNELS 3 Zrotation Yrotation Xrotation
		JOINT RightUpLeg
		{
			OFFSET -1.61527 -1.94743 0.52196
			CHANNELS 3 Zrotation Yrotation Xrotation
			JOINT RightLeg
			{
				OFFSET -2.53829 -6.97390 0.00000
				CHANNELS 3 Zrotation Yrotation Xrotation
				JOINT RightFoot
				{
					OFFSET -2.80762 -7.71387 0.00000
					CHANNELS 3 Zrotation Yrotation Xrotation
					JOINT RightToeBase
					{
						OFFSET -0.30536 -0.83898 2.28801
						CHANNELS 3 Zrotation Yrotation Xrotation
						End Site
						{
							OFFSET -0.00000 -0.00000 1.21323
						}
					}
				}
			}
		}
	}
	JOINT LowerBack
	{
		OFFSET 0 0 0
		CHANNELS 3 Zrotation Yrotation Xrotation
		JOINT Spine
		{
			OFFSET -0.04381 1.99497 -0.19778
			CHANNELS 3 Zrotation Yrotation Xrotation
			JOINT Spine1
			{
				OFFSET -0.01959 2.01295 -0.04372
				CHANNELS 3 Zrotation Yrotation Xrotation
				JOINT Neck
				{
					OFFSET 0 0 0
					CHANNELS 3 Zrotation Yrotation Xrotation
					JOINT Neck1
					{
						OFFSET -0.05459 1.76913 0.09708
						CHANNELS 3 Zrotation Yrotation Xrotation
						JOINT Head
						{
							OFFSET 0.09461 1.77368 -0.11172
							CHANNELS 3 Zrotation Yrotation Xrotation
							End Site
							{
								OFFSET 0.03812 1.78157 -0.04834
							}
						}
					}
				}
				JOINT LeftShoulder
				{
					OFFSET 0 0 0
					CHANNELS 3 Zrotation Yrotation Xrotation
					JOINT LeftArm
					{
						OFFSET 3.50922 1.24034 -0.28866
						CHANNELS 3 Zrotation Yrotation Xrotation
						JOINT LeftForeArm
						{
							OFFSET 5.40188 -0.00000 0.00000
							CHANNELS 3 Zrotation Yrotation Xrotation
							JOINT LeftHand
							{
								OFFSET 3.68559 -0.00000 0.00000
								CHANNELS 3 Zrotation Yrotation Xrotation
								JOINT LeftFingerBase
								{
									OFFSET 0 0 0
									CHANNELS 3 Zrotation Yrotation Xrotation
									JOINT LeftHandIndex1
									{
										OFFSET 0.61753 -0.00000 0.00000
										CHANNELS 3 Zrotation Yrotation Xrotation
										End Site
										{
											OFFSET 0.49787 -0.00000 0.00000
										}
									}
								}
								JOINT LThumb
								{
									OFFSET 0 0 0
									CHANNELS 3 Zrotation Yrotation Xrotation
									End Site
									{
										OFFSET 0.50547 -0.00000 0.50547
									}
								}
							}
						}
					}
				}
				JOINT RightShoulder
				{
					OFFSET 0 0 0
					CHANNELS 3 Zrotation Yrotation Xrotation
					JOINT RightArm
					{
						OFFSET -2.95373 1.39649 -0.27346
						CHANNELS 3 Zrotation Yrotation Xrotation
						JOINT RightForeArm
						{
							OFFSET -6.10670 -0.00000 -0.00000
							CHANNELS 3 Zrotation Yrotation Xrotation
							JOINT RightHand
							{
								OFFSET -3.63052 -0.00000 0.00000
								CHANNELS 3 Zrotation Yrotation Xrotation
								JOINT RightFingerBase
								{
									OFFSET 0 0 0
									CHANNELS 3 Zrotation Yrotation Xrotation
									JOINT RightHandIndex1
									{
										OFFSET -0.58385 -0.00000 0.00000
										CHANNELS 3 Zrotation Yrotation Xrotation
										End Site
										{
											OFFSET -0.47071 -0.00000 0.00000
										}
									}
								}
								JOINT RThumb
								{
									OFFSET 0 0 0
									CHANNELS 3 Zrotation Yrotation Xrotation
									End Site
									{
										OFFSET -0.47790 -0.00000 0.47790
									}
								}
							}
						}
					}
				}
			}
		}
	}
}
MOTION
Frames: 15
Frame Time: .0083333
0.0521 18.7423 7.0976 0 0 0 0 0 0 -21 0 0 0 0 0 0 0 0 0 0 0 0 0 0 21 0 0 0 0 0 0 0 0 0 0 0 0 0 0 0 0 0 0 0 0 0 0 -16 0 0 21 0 0 11 0 0 0 -8 0 0 0 0 0 0 0 0 0 0 0 0 0 0 0 0 0 0 0 0 8 0 0 0 0 0 0 0 0 0 0 0 0 0 0 0 0 0
0.0521 18.7423 7.0976 -2.7555 12.6451 -2.1577 0.0000 0.0000 0.0000 -8.8948 -15.7039 -2.5229 1.1921 6.9284 19.5035 0.3943 1.0267 -12.2783 0.4253 -4.1856 -11.5994 0.0000 0.0000 0.0000 20.0675 3.3187 7.8462 -0.9674 -6.2622 17.5472 0.9224 -26.0758 -31.0378 -0.2098 2.9488 -8.1362 -1.6333 4.6301 2.4623 -5.8820 6.0516 -0.4853 -5.3714 3.0318 -1.4060 -8.2432 -3.4061 -14.0587 10.3034 -3.8481 3.3357 4.2407 -1.5048 3.6434 -0.0000 -0.0000 0.0000 -73.5438 2.0869 -4.8067 8.7161 -14.7068 -1.1269 -0.0000 -0.0000 11.8629 31.1819 24.1249 13.8936 -7.1250 0.0000 -0.0000 2.0825 57.5983 0.6426 -0.0000 -0.0000 0.0000 27.0026 33.1418 -33.4491 -55.2434 54.9031 -30.4150 0.0000 0.0000 8.4801 -55.0460 6.7926 -9.6037 7.1250 -0.0000 -0.0000 -19.7075 -18.5635 -13.2115
0.0655 18.7417 7.1067 -2.9409 13.0694 -2.3658 0.0000 0.0000 0.0000 -8.7409 -15.4930 -2.6985 1.2391 7.0587 19.8893 0.4064 1.2670 -12.5693 0.4476 -4.2924 -11.9009 0.0000 0.0000 0.0000 20.1682 3.0012 7.9925 -0.9754 -6.2873 17.6204 0.9283 -25.9791 -30.8299 -0.2207 3.0240 -8.3456 -1.5861 4.5827 2.5526 -5.8117 5.9860 -0.4822 -5.3309 2.9979 -1.4613 -8.0671 -3.3493 -14.0599 10.2038 -3.8042 3.4652 4.1839 -1.4842 3.6728 -0.0000 0.0000 0.0000 -73.5672 1.9472 -5.5375 8.5654 -14.4652 -1.0890 -0.0000 -0.0000 12.4799 31.0337 23.8510 13.6737 -7.1250 0.0000 -0.0000 1.9798 57.2612 0.5948 -0.0000 0.0000 0.0000 26.6558 32.9975 -33.6940 -54.9544 54.8082 -30.1787 0.0000 0.0000 8.6850 -55.0138 6.4356 -9.0992 7.1250 -0.0000 -0.0000 -19.7965 -19.1430 -13.0051
0.0759 18.7408 7.1112 -3.0389 13.5371 -2.6357 0.0000 0.0000 0.0000 -8.6825 -15.2375 -2.7235 1.2692 7.1407 20.1329 0.4220 1.8129 -13.0660 0.4958 -4.5144 -12.5286 0.0000 0.0000 0.0000 20.2160 2.7059 8.2067 -0.9880 -6.3264 17.7345 0.9322 -25.9466 -30.7467 -0.2317 3.0978 -8.5512 -1.6391 4.5080 2.7926 -5.7419 5.8752 -0.4351 -5.2454 2.9420 -1.5685 -8.1990 -3.3217 -14.2790 10.3877 -3.7700 3.8344 4.2659 -1.4509 3.8240 0.0000 -0.0000 0.0000 -73.6344 1.8761 -6.0056 8.5096 -14.3756 -1.0751 -0.0000 -0.0000 12.7706 30.8055 23.4260 13.3357 -7.1250 0.0000 -0.0000 1.8226 56.7392 0.5245 0.0000 -0.0000 0.0000 26.2069 33.0071 -34.0719 -54.6441 54.7050 -29.9253 0.0000 0.0000 9.0575 -54.8598 5.9806 -8.4202 7.1250 -0.0000 -0.0000 -19.8384 -19.9076 -12.6717
0.0894 18.7411 7.1205 -3.1475 13.8762 -2.8258 0.0000 0.0000 0.0000 -8.5876 -14.9573 -2.7925 1.2995 7.2221 20.3751 0.4417 2.5779 -13.7626 0.5199 -4.6210 -12.8308 0.0000 0.0000 0.0000 20.2762 2.4766 8.3539 -1.0015 -6.3684 17.8570 0.9355 -25.9115 -30.6627 -0.2479 3.2036 -8.8462 -1.7444 4.4709 2.8273 -5.6384 5.8235 -0.3866 -5.0776 2.9169 -1.5632 -8.3236 -3.2930 -14.5196 10.5316 -3.7310 4.2000 4.3351 -1.4164 3.9759 0.0000 0.0000 0.0000 -73.7054 1.8606 -6.2256 8.4720 -14.3150 -1.0658 -0.0000 -0.0000 12.8293 30.7431 23.1057 13.1380 -7.1250 0.0000 -0.0000 1.8266 56.3711 0.5094 0.0000 0.0000 0.0000 25.7877 32.9502 -34.2974 -54.3490 54.6057 -29.6846 0.0000 0.0000 9.2240 -54.9575 6.2264 -8.7910 7.1250 -0.0000 -0.0000 -19.8250 -19.4916 -12.8606
0.1064 18.7420 7.1370 -3.2256 14.1177 -2.9682 0.0000 0.0000 0.0000 -8.4960 -14.5108 -2.8614 1.3232 7.2850 20.5624 0.4692 3.1513 -14.4780 0.4733 -4.4123 -12.2395 0.0000 0.0000 0.0000 20.2717 2.1683 8.4500 -1.0156 -6.4117 17.9838 0.9245 -25.7551 -30.4693 -0.2693 3.3381 -9.2214 -1.8936 4.4519 2.7632 -5.5727 5.7966 -0.3824 -4.9194 2.9044 -1.5467 -8.1423 -3.2566 -14.5381 10.3554 -3.7125 4.3836 4.2512 -1.4114 4.0251 -0.0000 -0.0000 0.0000 -73.6994 1.9645 -6.2798 8.4620 -14.2989 -1.0633 -0.0000 -0.0000 12.6747 30.7989 23.0321 13.1278 -7.1250 0.0000 -0.0000 1.9055 56.3021 0.5283 -0.0000 -0.0000 0.0000 25.5797 32.7993 -34.2720 -54.2206 54.5621 -29.5800 0.0000 0.0000 9.2040 -55.0831 6.3561 -9.0118 7.1250 -0.0000 -0.0000 -19.8651 -19.2538 -13.0035
0.1259 18.7438 7.1562 -3.2589 14.3453 -3.1113 0.0000 0.0000 0.0000 -8.4438 -13.8538 -2.9323 1.3417 7.3339 20.7084 0.4904 3.5303 -14.9921 0.4280 -4.1988 -11.6366 0.0000 0.0000 0.0000 20.2249 1.9213 8.5673 -1.0296 -6.4545 18.1089 0.9292 -25.6858 -30.3150 -0.2921 3.4755 -9.6056 -1.9846 4.4360 2.7159 -5.5779 5.7729 -0.4131 -4.8712 2.8929 -1.5620 -8.1454 -3.2310 -14.4617 10.3920 -3.7002 4.5728 4.2652 -1.4041 4.0703 0.0000 0.0000 0.0000 -73.5894 2.0933 -6.3934 8.4377 -14.2598 -1.0573 -0.0000 -0.0000 12.4063 30.7291 23.0472 13.1006 -7.1250 0.0000 -0.0000 1.8243 56.3032 0.5058 0.0000 0.0000 0.0000 25.5142 32.6115 -34.1313 -54.0472 54.5029 -29.4387 0.0000 0.0000 9.3184 -55.2920 6.6168 -9.4454 7.1250 -0.0000 -0.0000 -19.9169 -18.7835 -13.2663
0.1499 18.7464 7.1762 -3.1623 14.6228 -3.2415 0.0000 0.0000 0.0000 -8.5685 -13.2297 -2.9696 1.3595 7.3804 20.8472 0.5061 3.9145 -15.4417 0.3771 -3.9441 -10.9195 0.0000 0.0000 0.0000 20.0539 1.7609 8.7114 -1.0421 -6.4921 18.2190 1.0007 -25.8865 -30.1534 -0.3282 3.6818 -10.1831 -2.1688 4.3932 2.6609 -5.6115 5.7114 -0.4277 -4.7981 2.8635 -1.5651 -8.3161 -3.1687 -14.5315 10.6319 -3.6195 4.8167 4.3772 -1.3503 4.1573 0.0000 0.0000 0.0000 -73.4930 2.2447 -6.4716 8.4087 -14.2132 -1.0502 -0.0000 -0.0000 12.1695 30.7293 23.0270 13.0902 -7.1250 0.0000 -0.0000 1.8291 56.2808 0.5061 0.0000 0.0000 0.0000 25.3812 32.4783 -33.9595 -53.6951 54.3813 -29.1523 0.0000 0.0000 9.5167 -55.5231 6.9832 -10.0402 7.1250 -0.0000 -0.0000 -19.9490 -18.1337 -13.5996
0.1776 18.7479 7.1916 -2.9878 14.9485 -3.3268 0.0000 0.0000 0.0000 -8.7841 -12.7909 -3.0167 1.3778 7.4278 20.9890 0.5231 4.3085 -15.9190 0.3147 -3.6062 -9.9712 0.0000 0.0000 0.0000 19.7900 1.6076 8.8421 -1.0498 -6.5155 18.2876 1.0427 -26.0594 -30.1578 -0.3422 3.7587 -10.3989 -2.4013 4.3430 2.6680 -5.7038 5.6322 -0.4814 -4.7669 2.8250 -1.6429 -8.0791 -3.0748 -14.3279 10.5831 -3.5429 4.7712 4.3295 -1.3165 4.0981 -0.0000 -0.0000 0.0000 -73.3015 2.4247 -6.4557 8.3500 -14.1186 -1.0358 -0.0000 -0.0000 12.1009 30.6248 22.4501 12.7385 -7.1250 0.0000 -0.0000 1.8405 55.6190 0.4798 -0.0000 -0.0000 0.0000 25.2731 32.3217 -33.7225 -53.3443 54.2584 -28.8673 0.0000 0.0000 9.6562 -55.8952 7.2222 -10.5173 7.1250 -0.0000 -0.0000 -20.1069 -17.6456 -13.9553
0.2044 18.7474 7.2097 -3.0671 15.2080 -3.4698 0.0000 0.0000 0.0000 -8.6919 -12.2450 -3.0925 1.3893 7.4575 21.0781 0.5290 4.6701 -16.2415 0.3196 -3.6342 -10.0497 0.0000 0.0000 0.0000 19.8631 1.6194 9.0571 -1.0582 -6.5405 18.3610 1.0230 -26.1533 -30.4668 -0.3351 3.7202 -10.2909 -2.4303 4.2909 2.6019 -5.7083 5.5632 -0.5215 -4.7496 2.7906 -1.6540 -7.8535 -2.9927 -14.1287 10.5123 -3.4819 4.7929 4.2755 -1.2911 4.0613 -0.0000 0.0000 0.0000 -73.1498 2.5066 -6.9752 8.2366 -13.9356 -1.0083 -0.0000 -0.0000 12.4338 30.3131 22.1437 12.4280 -7.1250 0.0000 -0.0000 1.5645 55.2119 0.3923 -0.0000 0.0000 0.0000 25.0742 32.2517 -33.5079 -53.0209 54.1435 -28.6050 0.0000 0.0000 9.6963 -55.9630 7.2502 -10.5832 7.1250 -0.0000 -0.0000 -20.1402 -17.5812 -14.0124
0.2297 18.7452 7.2299 -3.1834 15.5013 -3.7066 0.0000 0.0000 0.0000 -8.5767 -11.7194 -3.0557 1.3925 7.4658 21.1027 0.5186 4.9928 -16.3464 0.3392 -3.7424 -10.3531 0.0000 0.0000 0.0000 19.9996 1.5940 9.3502 -1.0707 -6.5778 18.4705 1.0074 -26.2698 -30.7829 -0.3303 3.6934 -10.2157 -2.4356 4.2406 2.6377 -5.6883 5.4920 -0.5543 -4.7285 2.7545 -1.7150 -7.9360 -2.9501 -14.0334 10.6748 -3.4455 4.9920 4.3448 -1.2667 4.1084 -0.0000 -0.0000 0.0000 -73.0421 2.5240 -7.9731 8.0820 -13.6857 -0.9714 -0.0000 -0.0000 13.1745 30.4204 22.4298 12.6278 -7.1250 0.0000 -0.0000 1.6201 55.5517 0.4196 -0.0000 -0.0000 0.0000 24.9043 32.1562 -33.2918 -52.7424 54.0434 -28.3794 0.0000 0.0000 9.8400 -55.8833 7.0364 -10.2494 7.1250 -0.0000 -0.0000 -20.1574 -17.9504 -13.8495
0.2576 18.7446 7.2484 -3.0527 15.8684 -3.8443 0.0000 0.0000 0.0000 -8.7682 -11.3788 -2.9850 1.3910 7.4618 21.0910 0.4884 5.3957 -16.2799 0.3716 -3.9157 -10.8395 0.0000 0.0000 0.0000 19.7989 1.3935 9.4866 -1.0865 -6.6246 18.6079 1.0871 -26.5584 -30.7343 -0.3636 3.8733 -10.7204 -2.6041 4.1815 2.8196 -5.8041 5.3875 -0.6755 -4.7755 2.7022 -1.9532 -7.9459 -2.9171 -13.9364 10.8621 -3.4420 5.2434 4.4078 -1.2548 4.1736 -0.0000 -0.0000 0.0000 -72.7676 2.6905 -8.3224 7.9849 -13.5284 -0.9486 -0.0000 -0.0000 13.4859 30.6037 23.3136 13.1750 -7.1250 0.0000 -0.0000 1.6228 56.5691 0.4603 -0.0000 -0.0000 0.0000 24.8992 31.9844 -32.9764 -52.5034 53.9566 -28.1861 0.0000 0.0000 10.1692 -55.7189 6.6626 -9.6594 7.1250 -0.0000 -0.0000 -20.1716 -18.6008 -13.5478
0.2925 18.7441 7.2673 -2.8827 16.2490 -3.8983 0.0000 0.0000 0.0000 -9.0220 -11.1468 -2.9561 1.3872 7.4521 21.0618 0.4490 5.7481 -16.0672 0.4174 -4.1470 -11.4906 0.0000 0.0000 0.0000 19.5092 1.1673 9.5398 -1.1039 -6.6757 18.7581 1.1524 -26.7694 -30.6529 -0.3879 3.9994 -11.0749 -2.7043 4.1029 2.9456 -5.9652 5.2594 -0.8324 -4.9034 2.6375 -2.1882 -7.8886 -2.9146 -13.9572 10.9350 -3.4863 5.6438 4.4198 -1.2659 4.3040 0.0000 -0.0000 0.0000 -72.4111 2.9013 -8.3285 7.8707 -13.3430 -0.9220 -0.0000 -0.0000 13.5249 30.7800 23.9013 13.5680 -7.1250 0.0000 -0.0000 1.6800 57.2578 0.5045 0.0000 -0.0000 0.0000 24.8489 31.8568 -32.6912 -52.1793 53.8375 -27.9242 0.0000 0.0000 10.8582 -55.6004 7.0223 -10.1237 7.1250 -0.0000 -0.0000 -19.9853 -18.0498 -13.6676
0.3311 18.7411 7.2852 -2.7946 16.7371 -3.9830 0.0000 0.0000 0.0000 -9.1930 -10.9746 -2.9659 1.3830 7.4412 21.0293 0.4071 5.7794 -15.5568 0.4362 -4.2379 -11.7468 0.0000 0.0000 0.0000 19.3183 0.9154 9.6322 -1.1259 -6.7397 18.9464 1.1273 -26.7826 -30.8542 -0.3839 3.9788 -11.0170 -2.7893 3.9868 2.9032 -6.0259 5.1017 -0.8658 -4.9114 2.5596 -2.2109 -7.8597 -2.9321 -13.9282 10.8623 -3.5252 5.8364 4.3897 -1.2874 4.3595 0.0000 -0.0000 0.0000 -72.2375 2.7663 -9.5914 7.6036 -12.9083 -0.8614 -0.0000 -0.0000 14.7772 30.6171 23.4209 13.2371 -7.1250 0.0000 -0.0000 1.6124 56.6906 0.4621 0.0000 -0.0000 0.0000 24.4598 31.8557 -32.6888 -51.8137 53.7013 -27.6293 0.0000 0.0000 11.9476 -55.4162 7.3099 -10.4564 7.1250 -0.0000 -0.0000 -19.7818 -17.6365 -13.7031
0.3689 18.7358 7.3038 -2.9187 17.1368 -4.0929 0.0000 0.0000 0.0000 -9.1234 -10.8435 -2.9963 1.3815 7.4374 21.0179 0.3552 5.7447 -14.8314 0.4144 -4.1323 -11.4492 0.0000 0.0000 0.0000 19.3678 0.7868 9.6871 -1.1508 -6.8114 19.1579 1.1224 -26.8391 -30.9900 -0.3890 4.0049 -11.0905 -2.7583 3.9150 2.6465 -5.9827 5.0300 -0.7903 -4.8545 2.5251 -1.9943 -7.9338 -2.9784 -13.9101 10.8462 -3.5765 5.8674 4.3928 -1.3156 4.3717 -0.0000 0.0000 0.0000 -72.1249 2.3335 -11.3174 7.2763 -12.3730 -0.7898 -0.0000 -0.0000 16.3852 30.3401 22.8380 12.7986 -7.1250 0.0000 -0.0000 1.4403 55.9852 0.3882 -0.0000 0.0000 0.0000 23.8677 31.8348 -32.9519 -51.4811 53.5757 -27.3615 0.0000 0.0000 13.2684 -55.3864 7.5690 -10.8045 7.1250 -0.0000 -0.0000 -19.6844 -17.2289 -13.8156
